<?xml version="1.0" encoding="UTF-8" standalone="no"?>
<!-- Created with Inkscape (http://www.inkscape.org/) -->

<svg
   xmlns:dc="http://purl.org/dc/elements/1.1/"
   xmlns:cc="http://creativecommons.org/ns#"
   xmlns:rdf="http://www.w3.org/1999/02/22-rdf-syntax-ns#"
   xmlns:svg="http://www.w3.org/2000/svg"
   xmlns="http://www.w3.org/2000/svg"
   xmlns:sodipodi="http://sodipodi.sourceforge.net/DTD/sodipodi-0.dtd"
   xmlns:inkscape="http://www.inkscape.org/namespaces/inkscape"
   width="188.19133mm"
   height="47.051247mm"
   viewBox="0 0 666.81967 166.71701"
   id="svg3543"
   version="1.1"
   inkscape:version="0.91 r13725"
   sodipodi:docname="asciibinder_web_logo.svg">
  <defs
     id="defs3545" />
  <sodipodi:namedview
     id="base"
     pagecolor="#ffffff"
     bordercolor="#666666"
     borderopacity="1.0"
     inkscape:pageopacity="0.0"
     inkscape:pageshadow="2"
     inkscape:zoom="0.81055743"
     inkscape:cx="335.34138"
     inkscape:cy="-15.95588"
     inkscape:document-units="px"
     inkscape:current-layer="layer1"
     showgrid="false"
     inkscape:window-width="2560"
     inkscape:window-height="1403"
     inkscape:window-x="1920"
     inkscape:window-y="0"
     inkscape:window-maximized="1"
     fit-margin-top="5"
     fit-margin-left="5"
     fit-margin-right="5"
     fit-margin-bottom="5" />
  <metadata
     id="metadata3548">
    <rdf:RDF>
      <cc:Work
         rdf:about="">
        <dc:format>image/svg+xml</dc:format>
        <dc:type
           rdf:resource="http://purl.org/dc/dcmitype/StillImage" />
        <dc:title></dc:title>
      </cc:Work>
    </rdf:RDF>
  </metadata>
  <g
     inkscape:label="Layer 1"
     inkscape:groupmode="layer"
     id="layer1"
     transform="translate(-36.705865,-343.50822)">
    <g
       transform="translate(1240.693,-304.12633)"
       id="g3506"
       inkscape:export-xdpi="141.97"
       inkscape:export-ydpi="141.97">
      <path
         id="rect5452"
         d="m -1159.3928,665.35109 c -14.8904,0 -26.8778,11.98735 -26.8778,26.87783 l 0,77.52672 c 0,14.89048 11.9874,26.87939 26.8778,26.87939 l 77.5268,0 c 14.8904,0 26.8794,-11.98891 26.8794,-26.87939 l 0,-77.52672 c 0,-14.89048 -11.989,-26.87783 -26.8794,-26.87783 l -77.5268,0 z m 11.4962,15.65637 c 6.0104,0 12.022,2.28784 16.5983,6.86349 4.5733,4.57273 6.462,10.21255 7.1696,16.59986 0.7076,6.38731 0.314,13.60514 0.314,21.85894 a 1.6635808,1.6635808 0 0 1 -1.664,1.66407 c -10.7256,0 -18.0691,0.33714 -24.0003,-0.33124 -5.9312,-0.66839 -10.505,-2.47594 -14.9609,-6.54952 -9.6175,-8.79294 -9.2065,-24.0899 -0.053,-33.24211 4.5763,-4.57565 10.5863,-6.86349 16.5968,-6.86349 z m 54.5344,0 c 6.0104,-2e-5 12.0204,2.28784 16.5967,6.86349 9.1539,9.15224 9.5648,24.44915 -0.053,33.24211 -4.4558,4.07359 -9.0297,5.88113 -14.9609,6.54952 -5.9312,0.66838 -13.2763,0.33124 -24.0018,0.33124 a 1.663624,1.663624 0 0 1 -1.6625,-1.66407 c 0,-8.2538 -0.3937,-15.47162 0.314,-21.85894 0.7076,-6.38732 2.5963,-12.02712 7.1696,-16.59986 4.5762,-4.57566 10.5878,-6.86349 16.5983,-6.86349 z m -54.5344,3.30616 c -5.1522,0 -10.3044,1.97055 -14.245,5.91057 -7.8796,7.87939 -8.2133,20.97373 -0.053,28.43358 4.0094,3.66543 7.597,5.07969 13.0896,5.69865 5.1645,0.58199 12.2126,0.34931 21.9783,0.31868 0.042,-7.60428 0.3055,-14.29032 -0.3093,-19.83851 -0.6616,-5.97268 -2.2715,-10.66933 -6.2151,-14.6124 -3.9405,-3.94002 -9.0929,-5.91057 -14.2451,-5.91057 z m 54.5344,0 c -5.1522,0 -10.3047,1.97057 -14.2451,5.91057 -3.9436,3.94306 -5.5534,8.63973 -6.2151,14.6124 -0.6147,5.54819 -0.3511,12.23423 -0.3093,19.83851 9.7648,0.0306 16.814,0.26328 21.9783,-0.31868 5.4926,-0.61896 9.0802,-2.03322 13.0896,-5.69865 8.1604,-7.45983 7.8253,-20.55422 -0.055,-28.43358 -3.9404,-3.93943 -9.0917,-5.91057 -14.2435,-5.91057 z m -56.2597,49.59235 24.253,0 a 1.663624,1.663624 0 0 1 1.6641,1.66249 l 0,22.71767 a 1.663624,1.663624 0 1 1 -3.3266,0 l 0,-18.9013 -38.4509,38.45095 a 1.663624,1.663624 0 1 1 -2.3517,-2.35167 l 38.2516,-38.25157 -20.0395,0 a 1.663624,1.663624 0 1 1 0,-3.32657 z m 47.6395,0.002 0,0 c 3.918,-8e-4 7.237,0.0818 10.2026,0.41602 5.9312,0.66836 10.5051,2.47598 14.9609,6.54951 9.6181,8.79307 9.2051,24.08998 0.052,33.24211 -9.1526,9.15132 -24.0425,9.15133 -33.1951,0 -4.5732,-4.57269 -6.4619,-10.21256 -7.1696,-16.59986 -0.7076,-6.38731 -0.3139,-13.60514 -0.3139,-21.85894 a 1.663624,1.663624 0 0 1 1.6625,-1.66407 c 5.3628,0 9.8812,-0.084 13.7992,-0.0848 z m 0,3.33442 c -3.4084,0 -7.5795,0.0532 -12.1509,0.0675 -0.042,7.60488 -0.3053,14.29157 0.3093,19.84008 0.6618,5.97266 2.2716,10.6694 6.2151,14.6124 7.881,7.88003 20.609,7.88004 28.4901,0 7.8796,-7.87924 8.2117,-20.97363 0.052,-28.43358 -4.0094,-3.66536 -7.597,-5.07971 -13.0896,-5.69864 -2.746,-0.30939 -5.9536,-0.38774 -9.8243,-0.38776 l 0,0 z"
         style="opacity:1;fill:#ff580d;fill-opacity:1;stroke:none;stroke-width:4.13899994;stroke-linecap:butt;stroke-linejoin:miter;stroke-miterlimit:4;stroke-dasharray:none;stroke-dashoffset:4;stroke-opacity:1"
         inkscape:connector-curvature="0" />
      <g
         transform="matrix(0.80377604,0,0,0.80377604,-122.83511,206.84244)"
         id="g4372">
        <path
           d="m -1074.3731,637.65618 c -1.4489,0 -2.675,1.11462 -2.675,2.67507 l 0,8.02518 c -4.6814,-6.46473 -12.1493,-10.70025 -20.5088,-10.70025 -14.3785,0 -25.859,12.37218 -25.859,27.30796 0,14.93578 11.4805,27.30794 25.859,27.30794 8.3595,0 15.8274,-4.34698 20.5088,-10.81171 l 0,8.13666 c 0,1.44899 1.2261,2.67505 2.675,2.67505 1.4491,0 2.6751,-1.22606 2.6751,-2.67505 l 0,-49.26578 c 0,-1.56045 -1.226,-2.67507 -2.6751,-2.67507 z m -23.1838,49.2658 c -11.1461,0 -20.5089,-9.69713 -20.5089,-21.95784 0,-12.26073 9.3628,-22.06929 20.5089,-22.06929 11.2575,0 20.5088,9.80856 20.5088,22.06929 0,12.26071 -9.2513,21.95784 -20.5088,21.95784 z"
           style="font-style:normal;font-variant:normal;font-weight:normal;font-stretch:normal;font-size:medium;line-height:125%;font-family:Quicksand;-inkscape-font-specification:Quicksand;letter-spacing:0px;word-spacing:0px;fill:#000000;fill-opacity:1;stroke:none;stroke-width:1px;stroke-linecap:butt;stroke-linejoin:miter;stroke-opacity:1"
           id="path5464"
           inkscape:connector-curvature="0" />
        <path
           d="m -1051.9537,684.46981 c 4.4584,3.56677 11.369,7.69082 20.1745,7.80227 5.3501,0 9.8085,-1.56044 13.5982,-4.34698 3.6782,-2.78652 6.2418,-6.46473 6.2418,-11.03463 0,-4.56991 -2.5636,-8.80542 -6.1303,-11.14611 -3.7897,-2.11775 -8.0252,-3.67821 -13.2639,-4.45845 l -0.2229,0 c -5.0158,-0.7802 -8.694,-2.11775 -11.1461,-3.78966 -2.1178,-1.67193 -3.1209,-3.23238 -3.1209,-5.46159 0,-2.22924 1.226,-4.45844 3.4553,-6.24182 2.3406,-1.89484 5.9074,-3.1209 10.3658,-3.1209 5.3502,0 9.3628,2.78652 13.3754,5.46159 1.226,0.78022 2.8979,0.44583 3.6782,-0.78023 0.7802,-1.22607 0.4458,-2.898 -0.7803,-3.78967 -4.2355,-2.67508 -9.2512,-5.90745 -16.2733,-5.90745 -5.573,0 -10.1429,1.44899 -13.3753,3.67821 -3.4553,2.56361 -5.9074,6.35328 -5.9074,10.70027 0,4.23551 2.4521,7.80227 5.9074,9.80857 3.1209,2.2292 7.4679,3.34383 12.3722,4.2355 l 0.2229,0.11157 c 5.3501,0.8917 9.2513,2.22921 11.592,4.01261 2.7865,2.34067 3.7896,4.12405 3.9011,6.68765 0,2.45215 -1.449,4.90429 -4.1241,6.68765 -2.4521,2.0063 -6.1303,3.34384 -10.3658,3.34384 -6.9106,0 -12.9295,-3.56674 -16.7192,-6.35328 -1.2261,-1.00316 -2.898,-0.78024 -3.7897,0.33437 -0.8917,1.11463 -0.7802,2.56362 0.3344,3.56676 z"
           style="font-style:normal;font-variant:normal;font-weight:normal;font-stretch:normal;font-size:medium;line-height:125%;font-family:Quicksand;-inkscape-font-specification:Quicksand;letter-spacing:0px;word-spacing:0px;fill:#000000;fill-opacity:1;stroke:none;stroke-width:1px;stroke-linecap:butt;stroke-linejoin:miter;stroke-opacity:1"
           id="path5466"
           inkscape:connector-curvature="0" />
        <path
           d="m -969.45163,692.27208 c 0,0 0,0 0,0 6.46475,0 12.59511,-2.22921 17.16501,-5.79596 1.33753,-1.00315 1.56046,-2.67507 0.55731,-3.90113 -0.89171,-1.00316 -2.45215,-1.33754 -3.67823,-0.44585 -3.90113,3.00944 -8.80542,4.79284 -14.04409,4.79284 -12.70653,0 -22.73804,-9.8086 -22.73804,-22.06931 0,-12.03777 10.03151,-21.95782 22.73804,-21.95782 5.23867,0 10.14296,1.78338 14.04409,4.90428 1.22608,0.8917 2.78652,0.5573 3.67823,-0.44583 1.00315,-1.22607 0.78022,-2.898 -0.33439,-3.67822 -4.79282,-3.78967 -10.92318,-6.0189 -17.38793,-6.0189 -15.60454,0 -28.08817,12.03779 -28.08817,27.19649 0,15.38162 12.48363,27.41941 28.08817,27.41941 z"
           style="font-style:normal;font-variant:normal;font-weight:normal;font-stretch:normal;font-size:medium;line-height:125%;font-family:Quicksand;-inkscape-font-specification:Quicksand;letter-spacing:0px;word-spacing:0px;fill:#000000;fill-opacity:1;stroke:none;stroke-width:1px;stroke-linecap:butt;stroke-linejoin:miter;stroke-opacity:1"
           id="path5468"
           inkscape:connector-curvature="0" />
        <path
           d="m -929.95958,689.59703 c 0,1.44899 1.22607,2.67505 2.67507,2.67505 1.56044,0 2.78652,-1.22606 2.78652,-2.67505 l 0,-49.26578 c 0,-1.56045 -1.22608,-2.67507 -2.78652,-2.67507 -1.449,0 -2.67507,1.11462 -2.67507,2.67507 l 0,49.26578 z m 0,-64.53595 c 0,1.56046 1.22607,2.89799 2.67507,2.89799 1.56044,0 2.78652,-1.33753 2.78652,-2.89799 l 0,-2.5636 c 0,-1.44898 -1.22608,-2.67507 -2.78652,-2.67507 -1.449,0 -2.67507,1.22609 -2.67507,2.67507 l 0,2.5636 z"
           style="font-style:normal;font-variant:normal;font-weight:normal;font-stretch:normal;font-size:medium;line-height:125%;font-family:Quicksand;-inkscape-font-specification:Quicksand;letter-spacing:0px;word-spacing:0px;fill:#000000;fill-opacity:1;stroke:none;stroke-width:1px;stroke-linecap:butt;stroke-linejoin:miter;stroke-opacity:1"
           id="path5470"
           inkscape:connector-curvature="0" />
        <path
           d="m -898.61117,689.59703 c 0,1.44899 1.22606,2.67505 2.67507,2.67505 1.56045,0 2.78652,-1.22606 2.78652,-2.67505 l 0,-49.26578 c 0,-1.56045 -1.22607,-2.67507 -2.78652,-2.67507 -1.44901,0 -2.67507,1.11462 -2.67507,2.67507 l 0,49.26578 z m 0,-64.53595 c 0,1.56046 1.22606,2.89799 2.67507,2.89799 1.56045,0 2.78652,-1.33753 2.78652,-2.89799 l 0,-2.5636 c 0,-1.44898 -1.22607,-2.67507 -2.78652,-2.67507 -1.44901,0 -2.67507,1.22609 -2.67507,2.67507 l 0,2.5636 z"
           style="font-style:normal;font-variant:normal;font-weight:normal;font-stretch:normal;font-size:medium;line-height:125%;font-family:Quicksand;-inkscape-font-specification:Quicksand;letter-spacing:0px;word-spacing:0px;fill:#000000;fill-opacity:1;stroke:none;stroke-width:1px;stroke-linecap:butt;stroke-linejoin:miter;stroke-opacity:1"
           id="path5472"
           inkscape:connector-curvature="0" />
        <path
           d="m -867.37425,686.25319 c 0,3.23238 2.67505,6.0189 6.01888,6.0189 3.00945,0 5.35014,-2.11775 5.90743,-4.79281 4.23553,2.89799 9.58566,4.79281 15.15871,4.79281 15.04725,0 27.08503,-12.70655 27.08503,-27.75379 0,-15.27016 -12.03778,-27.97671 -27.08503,-27.97671 -5.46159,0 -10.81171,1.78337 -14.93578,4.68136 l 0,-20.95468 c 0,-3.23237 -2.67507,-6.0189 -6.13036,-6.0189 -3.34383,0 -6.01888,2.78653 -6.01888,6.0189 l 0,44.13857 c 0,0 0,0 0,0.11148 0,0 0,0 0,0 l 0,21.73488 z m 16.60768,-32.99246 c 2.78654,-2.89799 6.35328,-4.56989 10.47734,-4.56989 4.01259,0 7.69081,1.6719 10.47733,4.56989 2.78653,2.78653 4.45844,6.79913 4.45844,11.25757 0,4.23552 -1.67191,8.24812 -4.45844,11.03465 -2.78652,2.89799 -6.46474,4.56989 -10.47733,4.56989 -4.12406,0 -7.6908,-1.6719 -10.47734,-4.56989 -2.78653,-2.78653 -4.45844,-6.79913 -4.45844,-11.03465 0,-4.45844 1.67191,-8.47104 4.45844,-11.25757 z"
           style="font-style:normal;font-variant:normal;font-weight:bold;font-stretch:normal;font-size:medium;line-height:125%;font-family:Quicksand;-inkscape-font-specification:'Quicksand Bold';letter-spacing:0px;word-spacing:0px;fill:#ff580d;fill-opacity:1;stroke:none;stroke-width:1px;stroke-linecap:butt;stroke-linejoin:miter;stroke-opacity:1"
           id="path5476"
           inkscape:connector-curvature="0" />
        <path
           d="m -793.0095,636.65304 c -3.34383,0 -6.0189,2.56361 -6.0189,6.13036 l 0,43.46979 c 0,3.34384 2.67507,6.0189 6.0189,6.0189 3.4553,0 6.01889,-2.67506 6.01889,-6.0189 l 0,-43.46979 c 0,-3.56675 -2.56359,-6.13036 -6.01889,-6.13036 z m 6.01889,-16.38477 c 0,-3.34383 -2.56359,-6.0189 -6.01889,-6.0189 -3.34383,0 -6.0189,2.67507 -6.0189,6.0189 l 0,2.34069 c 0,3.34383 2.67507,6.13035 6.0189,6.13035 3.4553,0 6.01889,-2.78652 6.01889,-6.13035 l 0,-2.34069 z"
           style="font-style:normal;font-variant:normal;font-weight:bold;font-stretch:normal;font-size:medium;line-height:125%;font-family:Quicksand;-inkscape-font-specification:'Quicksand Bold';letter-spacing:0px;word-spacing:0px;fill:#ff580d;fill-opacity:1;stroke:none;stroke-width:1px;stroke-linecap:butt;stroke-linejoin:miter;stroke-opacity:1"
           id="path5478"
           inkscape:connector-curvature="0" />
        <path
           d="m -746.76249,636.54159 c -4.34698,0 -8.47104,1.33753 -11.81487,3.45528 -1.00315,-2.11775 -3.12092,-3.45528 -5.46159,-3.45528 -3.34383,0 -5.90744,2.67506 -5.90744,5.90742 l 0,17.27646 c 0,0 0,0 0,0 l 0,26.6392 c 0,3.23236 2.56361,5.90742 5.90744,5.90742 2.89798,0 5.35014,-2.11775 5.90743,-4.79281 0.22293,-0.44585 0.22293,-0.78023 0.22293,-1.11461 l 0,-26.6392 c 0,-6.24181 4.90428,-11.25755 11.1461,-11.25755 6.35329,0 11.59195,5.01574 11.59195,11.25755 l 0,26.6392 c 0,3.23236 2.78652,5.90742 5.90743,5.90742 3.23237,0 5.79597,-2.67506 5.79597,-5.90742 l 0,-26.6392 c 0,-12.59509 -10.36587,-23.18388 -23.29535,-23.18388 z"
           style="font-style:normal;font-variant:normal;font-weight:bold;font-stretch:normal;font-size:medium;line-height:125%;font-family:Quicksand;-inkscape-font-specification:'Quicksand Bold';letter-spacing:0px;word-spacing:0px;fill:#ff580d;fill-opacity:1;stroke:none;stroke-width:1px;stroke-linecap:butt;stroke-linejoin:miter;stroke-opacity:1"
           id="path5480"
           inkscape:connector-curvature="0" />
        <path
           d="m -656.19259,664.5183 c 0,0 0,0 0,0 0,-0.11147 0,-0.11147 0,-0.11147 l 0,-44.13856 c 0,-3.23238 -2.67506,-6.0189 -6.0189,-6.0189 -3.45529,0 -6.13035,2.78652 -6.13035,6.0189 l 0,20.95466 c -4.12406,-2.89798 -9.47419,-4.68135 -14.93579,-4.68135 -15.04722,0 -27.08503,12.70655 -27.08503,27.97671 0,15.04723 12.03781,27.7538 27.08503,27.7538 5.57307,0 10.9232,-1.89484 15.15871,-4.79282 0.55731,2.67505 2.898,4.79282 5.90743,4.79282 3.34384,0 6.0189,-2.78654 6.0189,-6.01891 l 0,-21.73489 z m -16.60769,-11.25757 c 2.78652,2.78653 4.45844,6.79913 4.45844,11.25757 0,4.23552 -1.67192,8.24812 -4.45844,11.03465 -2.78652,2.89799 -6.35329,4.56989 -10.47735,4.56989 -4.01259,0 -7.69081,-1.6719 -10.47733,-4.56989 -2.78652,-2.78653 -4.45844,-6.79913 -4.45844,-11.03465 0,-4.45844 1.67192,-8.47104 4.45844,-11.25757 2.78652,-2.89799 6.46474,-4.56989 10.47733,-4.56989 4.12406,0 7.69083,1.6719 10.47735,4.56989 z"
           style="font-style:normal;font-variant:normal;font-weight:bold;font-stretch:normal;font-size:medium;line-height:125%;font-family:Quicksand;-inkscape-font-specification:'Quicksand Bold';letter-spacing:0px;word-spacing:0px;fill:#ff580d;fill-opacity:1;stroke:none;stroke-width:1px;stroke-linecap:butt;stroke-linejoin:miter;stroke-opacity:1"
           id="path5482"
           inkscape:connector-curvature="0" />
        <path
           d="m -614.08545,692.27209 c 7.91373,0 14.48994,-2.34068 19.95153,-7.35641 2.5636,-2.34068 1.44899,-5.68452 0,-7.24498 -1.44901,-1.78337 -6.0189,-2.11775 -8.35959,0.33438 -2.78652,2.11776 -7.57934,3.12091 -11.59194,2.78653 -3.90114,-0.33438 -8.35958,-2.34067 -10.70027,-5.01575 -2.00629,-1.89483 -3.23236,-4.79282 -3.78967,-7.35644 l 35.44462,0 c 3.1209,0 5.46159,-1.78337 5.79595,-4.45842 0.11148,-0.22292 0.11148,-0.78022 0.11148,-1.00315 0,0 0,0 0,0 0,0 0,0 0,0 0,-0.22293 0,-0.44585 0,-0.55731 -0.8917,-15.04723 -12.37217,-25.85895 -26.86211,-25.85895 -15.27016,0 -27.08503,12.70655 -27.19649,27.86525 0.11147,15.1587 11.92633,27.7538 27.19649,27.86525 z m 0,-45.14171 c 9.6971,0.78024 15.38161,7.35643 16.49624,11.81487 l -31.54349,0 c 0.8917,-4.56991 5.57307,-11.36903 15.04725,-11.81487 z"
           style="font-style:normal;font-variant:normal;font-weight:bold;font-stretch:normal;font-size:medium;line-height:125%;font-family:Quicksand;-inkscape-font-specification:'Quicksand Bold';letter-spacing:0px;word-spacing:0px;fill:#ff580d;fill-opacity:1;stroke:none;stroke-width:1px;stroke-linecap:butt;stroke-linejoin:miter;stroke-opacity:1"
           id="path5484"
           inkscape:connector-curvature="0" />
        <path
           d="m -543.43138,636.65304 c -5.57305,-0.11148 -10.36587,1.89484 -14.04409,4.34698 -0.78023,0.55731 -1.67192,1.44899 -2.34068,2.22923 l 0,-0.78024 c 0,-3.23236 -2.78652,-5.79597 -6.13036,-5.79597 -3.23237,0 -5.90742,2.56361 -5.90742,5.79597 l 0,43.91566 c 0,3.23236 2.67505,5.90742 5.90742,5.90742 3.34384,0 6.13036,-2.67506 6.13036,-5.90742 l 0,-21.17761 c 0.5573,-1.56044 1.89483,-5.79597 4.56989,-9.36272 1.33754,-2.11777 3.00946,-4.01259 5.12721,-5.35013 1.89484,-1.44899 4.12405,-2.11777 6.68767,-2.11777 3.34383,0 5.90744,-2.78652 5.90744,-5.90743 0,-3.23236 -2.56361,-5.79597 -5.90744,-5.79597 z"
           style="font-style:normal;font-variant:normal;font-weight:bold;font-stretch:normal;font-size:medium;line-height:125%;font-family:Quicksand;-inkscape-font-specification:'Quicksand Bold';letter-spacing:0px;word-spacing:0px;fill:#ff580d;fill-opacity:1;stroke:none;stroke-width:1px;stroke-linecap:butt;stroke-linejoin:miter;stroke-opacity:1"
           id="path5486"
           inkscape:connector-curvature="0" />
      </g>
    </g>
  </g>
</svg>
